<?xml version="1.0" standalone="no"?>
<!DOCTYPE svg PUBLIC "-//W3C//DTD SVG 20010904//EN"
 "http://www.w3.org/TR/2001/REC-SVG-20010904/DTD/svg10.dtd">
<svg version="1.0" xmlns="http://www.w3.org/2000/svg"
 width="512.000000pt" height="512.000000pt" viewBox="0 0 512.000000 512.000000"
 preserveAspectRatio="xMidYMid meet">
<metadata>
Created by potrace 1.14, written by Peter Selinger 2001-2017
</metadata>
<g transform="translate(0.000000,512.000000) scale(0.100000,-0.100000)"
fill="#000000" stroke="none">
<path d="M4090 4559 c-82 -14 -95 -19 -120 -37 -17 -13 -26 -31 -28 -54 -5
-61 47 -98 109 -76 26 9 62 15 107 17 27 1 72 46 72 72 0 10 -5 29 -11 43 -18
38 -55 49 -129 35z"/>
<path d="M2620 4485 c-320 -43 -640 -170 -902 -358 -146 -104 -304 -255 -396
-377 -31 -41 -59 -77 -62 -80 -3 -3 -25 -35 -49 -72 l-43 -68 -172 0 c-94 0
-187 -5 -207 -10 -55 -15 -121 -79 -142 -136 -25 -72 -23 -179 5 -224 19 -31
22 -50 23 -162 l1 -128 -26 0 c-94 -2 -149 -9 -177 -23 -47 -25 -83 -78 -91
-134 -9 -64 -7 -1830 2 -1868 17 -69 93 -128 171 -134 6 -1 11 -25 11 -55 3
-114 95 -172 194 -121 40 21 60 58 63 119 1 39 6 56 17 58 13 3 543 2 593 -1
14 -1 17 -10 17 -52 0 -30 7 -63 17 -81 23 -39 78 -67 122 -62 71 8 113 58
121 143 4 44 9 55 24 57 47 7 68 16 101 45 25 23 39 28 48 21 27 -23 238 -122
318 -150 235 -83 409 -113 669 -116 805 -10 1548 488 1855 1244 155 381 188
801 94 1202 -64 275 -207 568 -384 788 -52 66 -52 66 -25 64 46 -3 66 20 96
108 32 96 32 123 2 155 -28 30 -72 30 -102 0 -21 -21 -65 -143 -69 -188 -1
-15 -10 -10 -47 25 -86 84 -125 118 -215 185 -89 67 -273 181 -293 181 -6 0 3
13 19 29 44 45 37 100 -17 129 -26 14 -49 8 -132 -33 l-65 -32 -106 34 c-115
37 -253 67 -371 82 -107 13 -378 11 -490 -4z m-1605 -1275 c-27 -70 -70 -212
-85 -286 -10 -47 -14 -52 -41 -56 -16 -3 -32 -1 -35 4 -9 15 -4 262 5 268 15
9 31 58 31 96 l0 34 74 0 75 0 -24 -60z"/>
<path d="M4372 4485 c-35 -25 -45 -61 -27 -93 8 -15 28 -55 44 -89 41 -85 82
-104 136 -61 24 19 27 26 23 67 -12 124 -111 222 -176 176z"/>
</g>
</svg>
